# xmcd
#
# Track frame offsets:
#	150
#	23965
#	42250
#	58120
#	80835
#	95495
#	109065
#	122255
#	138345
#	158280
#	181135
#	198195
#
# Disc length: 2922 seconds
#
# Revision: 5
# Processed by: cddbd v1.5.2PL0 Copyright (c) Steve Scherf et al.
# Submitted via: audiograbber 1.80.04
#
DISCID=920b680c
DTITLE=Vários - Amigos Vol. 1
DYEAR=1996
DGENRE=Sertanejo
TTITLE0=Leandro and Leonardo, Zezé Di Camargo and Luciano, Chitãozinho and Xororó - D
TTITLE0=isparada
TTITLE1=Zezé Di Camargo and Luciano - Menina Veneno
TTITLE2=Chitãozinho and Xororó - Bailão de Peão
TTITLE3=Leandro and Leonardo - Eu Juro (I Swear)
TTITLE4=Leandro and Leonardo, Zezé Di Camargo and Luciano, Chitãozinho and Xororó - N
TTITLE4=oite Feliz
TTITLE5=Leandro and Leonardo, Zezé Di Camargo and Luciano, Chitãozinho and Xororó - A
TTITLE5=ve Maria
TTITLE6=Zezé Di Camargo and Chitãozinho - Fio de Cabelo
TTITLE7=Luciano and Leonardo - É o Amor
TTITLE8=Leonardo and Xororó - Temporal de Amor
TTITLE9=Chitãozinho and Xororó - Um Homem Quando Ama (Have You Ever Really Loved 
TTITLE9=A Woman)
TTITLE10=Zezé Di Camargo and Luciano - Pão de Mel
TTITLE11=Leandro and Leonardo - Festa de Rodeio
EXTD=dayvisondj@hotmail.com\nDayvison DJ Is Of Recife - PE - Brazil\n8690-4073
EXTT0=Leandro and Leonardo, Zezé Di Camargo and Luciano, Chitãozinho and Xororó
EXTT1=Zezé Di Camargo and Luciano
EXTT2=Chitãozinho and Xororó
EXTT3=Leandro and Leonardo
EXTT4=Leandro and Leonardo, Zezé Di Camargo and Luciano, Chitãozinho and Xororó
EXTT5=Leandro and Leonardo, Zezé Di Camargo and Luciano, Chitãozinho and Xororó
EXTT6=Zezé Di Camargo and Chitãozinho
EXTT7=Luciano and Leonardo
EXTT8=Leandro and Xororó
EXTT9=Chitãozinho and Xororó
EXTT10=Zezé Di Camargo and Luciano
EXTT11=Leandro and Leonardo
PLAYORDER=
